<?xml version="1.0" encoding="UTF-8" standalone="no"?>
<!-- Generator: Adobe Illustrator 16.0.0, SVG Export Plug-In . SVG Version: 6.00 Build 0)  -->

<svg
   xmlns:dc="http://purl.org/dc/elements/1.1/"
   xmlns:cc="http://creativecommons.org/ns#"
   xmlns:rdf="http://www.w3.org/1999/02/22-rdf-syntax-ns#"
   xmlns:svg="http://www.w3.org/2000/svg"
   xmlns="http://www.w3.org/2000/svg"
   xmlns:sodipodi="http://sodipodi.sourceforge.net/DTD/sodipodi-0.dtd"
   xmlns:inkscape="http://www.inkscape.org/namespaces/inkscape"
   version="1.1"
   id="svg3409"
   inkscape:version="0.48.4 r9939"
   sodipodi:docname="logo.svg"
   x="0px"
   y="0px"
   width="454.09"
   height="282"
   viewBox="0 0 454.09 281.99998"
   enable-background="new 0 0 744.094 1052.363"
   xml:space="preserve"><metadata
     id="metadata39"><rdf:RDF><cc:Work
         rdf:about=""><dc:format>image/svg+xml</dc:format><dc:type
           rdf:resource="http://purl.org/dc/dcmitype/StillImage" /><dc:title /></cc:Work></rdf:RDF></metadata><defs
     id="defs37" /><sodipodi:namedview
     inkscape:document-units="px"
     inkscape:window-x="0"
     inkscape:window-height="848"
     inkscape:pageopacity="0.0"
     inkscape:window-width="1600"
     inkscape:current-layer="text29"
     inkscape:pageshadow="2"
     showgrid="false"
     inkscape:cy="219.73094"
     inkscape:cx="375"
     inkscape:zoom="0.98994949"
     borderopacity="1.0"
     bordercolor="#666666"
     pagecolor="#ffffff"
     id="base"
     inkscape:window-maximized="1"
     inkscape:window-y="0" /><g
     id="g4"
     transform="translate(-31.314728,-425.90048)"><path
       id="path5"
       inkscape:connector-curvature="0"
       sodipodi:nodetypes="ccccccccccccccccccccccccc"
       d="m 388.245,597.65 c 12.998,13.193 -3.26,16.016 -3.26,16.016 -5.287,1.793 -6.236,-3.771 -6.236,-3.771 L 367.645,577.05 c -2.359,-8.479 -7.623,-6.914 -7.623,-6.914 -13.365,4.522 -18.24,-10.815 -18.24,-10.815 l -6.15,-18.166 c -4.467,-13.206 8.979,-18.407 8.979,-18.407 l 17.268,-5.848 c 5.576,-1.885 6.42,3.383 6.42,3.383 l 13.916,42.046 c 1.189,3.506 -1.189,11.172 -1.189,11.172 -0.002,10.893 10.998,16.217 7.219,24.149 z m 64.539,-72.611 c 3.846,-4.11 5.422,-10.131 3.488,-15.837 -1.936,-5.725 -6.834,-9.533 -12.398,-10.463 l -12.967,-38.336 c -1.693,-5.01 -4.049,1.997 -4.049,1.997 -9.533,37.985 -51.83,49.496 -51.83,49.496 -4.9,1.67 -2.711,5.583 -2.711,5.583 l 12.25,36.197 c 1.41,4.178 5.787,2.699 5.787,2.699 46.346,-15.689 72.043,8.27 72.043,8.27 0,0 5.182,3.315 3.328,-1.337 l -12.941,-38.269 z" /><g
       id="g7"><g
         id="g9"><path
           d="m 365.497,577.818 c -0.881,-0.484 -1.922,-0.828 -3.107,-1.02 -1.17,-0.205 -2.348,-0.33 -3.51,-0.359 -1.17,-0.043 -2.074,-0.029 -2.73,0.043 -6.051,0.666 -12.063,1.806 -18.016,3.359 -5.955,1.58 -11.814,3.346 -17.557,5.308 -5.762,1.961 -11.5,3.972 -17.23,6.013 -5.746,2.034 -11.518,3.883 -17.285,5.515 l -17.046,5.371 c -0.831,0.092 -1.965,0.308 -3.411,0.622 -1.478,0.329 -2.352,0.512 -2.686,0.549 -0.16,0.018 -0.925,-0.063 -2.264,-0.245 -0.349,-0.126 -0.803,-0.121 -1.362,0.02 -0.565,0.153 -1.003,0.242 -1.333,0.279 l -0.081,-0.731 c 0.105,-0.759 0.101,-1.392 0.007,-1.918 13.69,-20.154 17.013,-20.58 20.225,-20.58 1.813,0 3.497,0.156 5.061,0.478 1.57,0.34 3.098,0.489 4.58,0.489 3.451,0 6.877,-1.061 10.246,-3.208 3.377,-2.145 6.461,-4.113 9.268,-5.939 l 12.854,-6.918 c 0.16,-0.146 0.693,-0.519 1.598,-1.094 0.908,-0.579 1.859,-1.195 2.84,-1.868 0.992,-0.649 1.938,-1.263 2.842,-1.845 0.908,-0.568 1.523,-1.021 1.859,-1.353 0.318,-0.168 0.658,-0.422 0.982,-0.751 0.336,-0.324 0.576,-0.485 0.744,-0.485 v -0.747 -0.739 c -0.168,-1.315 -0.332,-2.047 -0.496,-2.219 -0.33,-0.497 -0.744,-1.326 -1.23,-2.466 -0.504,-1.15 -1.033,-2.446 -1.613,-3.84 -0.578,-1.396 -1.15,-2.757 -1.729,-4.079 -0.572,-1.311 -0.957,-2.297 -1.102,-2.962 -0.498,-1.472 -1.238,-2.469 -2.234,-2.974 -3.941,-1.804 -7.287,-3.488 -10.004,-5.05 -2.723,-1.572 -5.977,-2.346 -9.76,-2.346 h -0.238 c -0.502,0 -0.953,0.038 -1.367,0.127 -0.416,0.075 -0.703,0.104 -0.859,0.104 h -0.99 c -0.986,0.172 -2.645,0.493 -4.938,0.998 -2.32,0.5 -4.826,0.989 -7.545,1.479 -2.709,0.501 -5.313,0.949 -7.778,1.356 -2.473,0.426 -4.202,0.709 -5.192,0.87 -0.164,0.172 -0.985,0.403 -2.473,0.743 -1.476,0.336 -2.387,0.579 -2.715,0.743 l -9.38,8.146 c -0.504,0.333 -1.322,0.9 -2.477,1.726 -1.15,0.826 -2.346,1.647 -3.582,2.484 -1.229,0.821 -2.469,1.524 -3.705,2.1 -1.236,0.567 -2.189,0.848 -2.843,0.848 v -0.225 c -0.99,-0.179 -2.465,-0.586 -4.441,-1.247 -1.979,-0.654 -4.12,-1.318 -6.429,-1.983 -2.297,-0.654 -4.452,-1.271 -6.432,-1.846 -1.961,-0.582 -3.451,-1.027 -4.441,-1.367 -2.141,-0.489 -4.695,-0.69 -7.653,-0.616 -2.962,0.086 -5.521,0.127 -7.661,0.127 -11.363,0 -22.479,1.446 -33.345,4.318 -10.881,2.898 -21.333,6.888 -31.373,11.986 -10.055,5.121 -19.569,11.198 -28.545,18.284 -8.972,7.075 -17.25,14.747 -24.832,22.972 -0.333,0.505 -1.229,1.621 -2.715,3.332 -1.472,1.741 -3.093,3.68 -4.811,5.813 -1.737,2.144 -3.339,4.071 -4.819,5.812 -1.475,1.727 -2.394,2.836 -2.723,3.328 -2.633,3.307 -5.479,5.895 -8.516,7.796 -3.044,1.887 -6.473,3.989 -10.257,6.29 -0.489,0.325 -0.822,0.575 -0.993,0.755 l -0.247,0.481 v 0.247 h 0.247 c 0.836,1.307 1.86,2.678 3.1,4.079 1.225,1.4 2.256,2.514 3.082,3.328 l 0.247,0.254 c 0,0.168 -0.086,0.246 -0.247,0.246 0,0.172 -0.165,0.53 -0.489,1.102 -0.336,0.598 -0.665,1.035 -0.998,1.36 -2.465,3.141 -5.394,6.477 -8.767,10.007 -3.376,3.545 -6.548,7.28 -9.51,11.239 -2.962,3.955 -5.487,8.121 -7.534,12.484 -2.058,4.365 -3.093,8.855 -3.093,13.461 0,1.977 0.665,3.545 1.979,4.703 1.319,1.146 2.921,1.969 4.819,2.469 1.894,0.49 3.829,0.785 5.804,0.848 1.98,0.102 3.706,0.135 5.192,0.135 h 0.736 2.469 1.001 c 1.961,-1.482 3.53,-3.336 4.677,-5.566 1.154,-2.215 2.271,-4.348 3.343,-6.416 1.068,-2.066 2.428,-3.867 4.071,-5.432 1.655,-1.561 3.956,-2.357 6.929,-2.357 1.143,0.834 2.047,1.453 2.711,1.861 0.658,0.422 1.644,0.623 2.966,0.623 0.489,0 1.442,-0.127 2.843,-0.373 1.397,-0.25 2.835,-0.572 4.314,-0.998 1.483,-0.395 2.85,-0.777 4.083,-1.113 1.236,-0.316 1.856,-0.574 1.856,-0.73 0.822,-2.639 1.894,-6.094 3.201,-10.377 1.322,-4.289 2.394,-7.908 3.223,-10.863 h 1.718 c 2.966,0 5.939,0.119 8.905,0.37 2.955,0.228 5.917,0.362 8.89,0.362 3.944,0 7.206,-0.037 9.76,-0.135 2.551,-0.067 5.965,-0.269 10.25,-0.598 v 0.239 0.246 c -0.325,0.333 -0.866,1.237 -1.61,2.716 -0.736,1.482 -1.27,2.398 -1.602,2.717 -4.117,6.584 -9.137,12.441 -15.072,17.543 -5.924,5.107 -12.438,9.059 -19.521,11.854 -0.818,0.332 -2.308,0.824 -4.441,1.486 -2.141,0.65 -4.322,1.408 -6.552,2.234 -2.219,0.813 -4.243,1.605 -6.055,2.342 -1.8,0.734 -2.797,1.434 -2.951,2.092 1.628,2.482 4.023,3.705 7.164,3.705 h 1.976 5.917 1.976 c 8.569,0 16.278,-0.777 23.103,-2.346 6.835,-1.559 14.209,-3.736 22.113,-6.537 0.164,0 0.497,-0.041 0.99,-0.135 0.497,-0.082 0.829,-0.131 0.982,-0.131 0.5,-0.479 1.524,-1.352 3.097,-2.576 1.572,-1.236 3.205,-2.518 4.938,-3.836 1.733,-1.32 3.373,-2.602 4.945,-3.83 1.569,-1.232 2.667,-2.102 3.328,-2.584 0.661,-0.34 1.573,-0.92 2.712,-1.738 1.158,-0.828 1.901,-1.311 2.234,-1.49 l 0.747,0.266 v 3.191 c 0.818,0 1.927,-0.602 3.324,-1.838 1.401,-1.234 2.846,-2.684 4.329,-4.334 1.483,-1.633 2.798,-3.246 3.944,-4.807 1.154,-1.563 1.98,-2.678 2.473,-3.348 0.497,-0.822 1.322,-2.092 2.476,-3.816 1.147,-1.742 2.342,-3.545 3.583,-5.443 1.232,-1.894 2.428,-3.698 3.582,-5.438 0.69,-1.039 17.805,-10.171 34.923,-22.749 0.635,2.691 1.475,5.245 2.537,7.664 1.114,2.522 2.642,4.68 4.57,6.454 1.929,1.771 4.588,2.976 7.982,3.596 l 6.39,-0.707 1.953,-0.217 1.723,-0.19 6.374,-0.706 c 6.465,-1.554 12.615,-3.976 18.452,-7.264 5.868,-3.311 11.529,-6.418 17.009,-9.336 1.537,-1.012 3.377,-1.919 5.525,-2.731 2.156,-0.821 4.293,-1.757 6.408,-2.818 2.121,-1.072 4.129,-2.246 6.068,-3.535 1.932,-1.297 3.385,-2.821 4.344,-4.581 0.098,-0.511 0.152,-0.931 0.117,-1.254 -0.02,-0.17 -0.137,-0.319 -0.307,-0.469 0.445,-0.388 1.213,-1.048 2.264,-1.991 1.045,-0.938 2.219,-1.907 3.537,-2.876 1.301,-0.975 2.518,-1.895 3.658,-2.765 1.146,-0.875 1.953,-1.506 2.408,-1.879 0.777,-0.413 2.65,-1.583 5.586,-3.476 2.928,-1.898 6.109,-3.916 9.516,-6.037 3.404,-2.112 6.623,-4.127 9.652,-6.04 3.01,-1.9 4.908,-3.145 5.666,-3.732 0.313,-0.199 1.277,-0.885 2.885,-2.052 1.605,-1.178 2.814,-1.98 3.58,-2.388 0.623,-0.408 1.426,-1.034 2.414,-1.884 0.988,-0.861 1.418,-1.694 1.328,-2.511 -0.107,-0.977 -0.594,-1.717 -1.474,-2.194 z"
           id="path11"
           inkscape:connector-curvature="0" /></g></g></g><g
     id="g13"
     transform="translate(-31.314728,-425.90048)"><g
       id="g15"><path
         d="m 91.612,518.747 c 8.151,17.012 16.303,34.024 24.454,51.036 1.394,2.908 -0.162,7.221 -3.391,9.972 -1.785,1.521 -4.969,1.73 -5.312,1.974 -0.539,0.382 -1.587,4.247 -3.265,5.909 -3.035,3.008 -6.509,3.321 -8.026,0.527 -8.874,-16.348 -17.749,-32.694 -26.621,-49.043 -0.319,-0.588 0.001,-1.759 0.693,-2.5 0.78,-0.835 1.583,-0.866 1.899,-0.275 8.79,16.438 17.58,32.876 26.368,49.315 0.83,1.553 2.829,1.411 4.515,-0.26 1.606,-1.591 2.35,-4.172 1.54,-5.745 -8.571,-16.655 -17.143,-33.31 -25.711,-49.966 -0.308,-0.599 0.064,-1.729 0.805,-2.41 0.741,-0.681 1.662,-0.742 1.967,-0.14 8.479,16.739 16.962,33.477 25.441,50.216 0.801,1.581 2.87,1.58 4.578,0.125 1.793,-1.527 2.56,-3.94 1.78,-5.54 -8.25,-16.934 -16.502,-33.867 -24.751,-50.801 -0.297,-0.609 0.124,-1.694 1.008,-2.39 0.786,-0.619 1.736,-0.616 2.029,-0.004 z"
         id="path17"
         inkscape:connector-curvature="0" /><path
         d="m 116.082,502.986 c 7.938,18.918 15.876,37.836 23.818,56.753 0.265,0.631 -0.187,1.543 -1.058,2.019 -0.774,0.423 -1.683,0.251 -1.952,-0.378 -3.862,-9.033 -7.722,-18.067 -11.583,-27.102 -3.018,1.689 -4.506,2.574 -7.438,4.425 3.99,8.956 7.988,17.909 11.98,26.865 0.278,0.623 -0.134,1.579 -0.877,2.06 -0.836,0.54 -1.635,0.368 -1.917,-0.253 -8.445,-18.618 -16.89,-37.235 -25.333,-55.854 -0.281,-0.62 0.093,-1.577 1.032,-2.184 0.835,-0.54 1.814,-0.457 2.092,0.166 3.991,8.956 7.986,17.91 11.979,26.865 2.945,-1.859 4.441,-2.749 7.474,-4.446 -3.862,-9.033 -7.724,-18.066 -11.582,-27.101 -0.269,-0.628 0.251,-1.603 1.122,-2.077 0.979,-0.535 1.978,-0.389 2.243,0.242 z"
         id="path19"
         inkscape:connector-curvature="0" /><path
         d="m 149.825,554.914 c -7.551,-19.106 -15.098,-38.214 -22.647,-57.321 -0.251,-0.637 0.32,-1.544 1.228,-1.935 1.022,-0.44 2.039,-0.213 2.286,0.425 7.423,19.162 14.85,38.322 22.276,57.482 0.248,0.639 -0.248,1.491 -1.158,1.883 -0.809,0.347 -1.733,0.102 -1.985,-0.534 z"
         id="path21"
         inkscape:connector-curvature="0" /><path
         d="m 159.538,491.465 c 0.753,2.271 1.132,3.409 1.885,5.68 2.11,6.36 3.165,9.54 5.275,15.901 0.7,2.109 -0.401,4.437 -2.663,6.01 -0.198,0.137 -0.423,0.198 -0.761,0.288 4.813,8.673 9.545,17.392 14.193,26.154 0.323,0.624 -0.136,1.475 -0.938,1.71 -0.101,0.029 -0.108,0.025 -0.215,0.052 -0.857,0.209 -1.662,-0.115 -1.961,-0.655 -4.732,-8.82 -9.548,-17.596 -14.449,-26.323 -1.343,0.389 -2.013,0.589 -3.347,1.006 3.257,9.139 6.518,18.276 9.777,27.415 0.23,0.646 -0.2,1.404 -1.143,1.71 -0.837,0.271 -1.771,-0.046 -2.006,-0.689 -6.518,-17.916 -13.034,-35.833 -19.551,-53.749 -1.083,-2.978 1.548,-6.596 6.07,-7.876 4.406,-1.248 8.838,0.364 9.834,3.366 z m -1.652,6.54 c -0.769,-2.268 -1.151,-3.402 -1.92,-5.67 -0.549,-1.62 -3.046,-2.483 -5.417,-1.813 -2.488,0.705 -3.996,2.705 -3.42,4.317 3.427,9.612 5.14,14.418 8.567,24.03 2.502,-0.782 3.761,-1.148 6.294,-1.831 1.162,-0.932 1.632,-2.105 1.275,-3.158 -2.151,-6.349 -3.227,-9.524 -5.379,-15.875 z"
         id="path23"
         inkscape:connector-curvature="0" /><path
         d="m 188.226,487.231 c 0.961,3.466 1.442,5.199 2.404,8.665 1.361,4.904 2.04,7.357 3.401,12.262 0.091,0.327 0.136,0.49 0.227,0.817 0.068,0.245 -0.094,0.523 -0.172,0.675 -0.719,1.392 -2.884,4.258 -6.503,4.651 -1.634,0.177 -3.244,0.041 -4.58,-0.372 2.917,9.678 5.834,19.356 8.753,29.034 0.197,0.652 -0.399,1.325 -1.275,1.453 -0.985,0.145 -1.926,-0.302 -2.127,-0.954 -3.452,-11.19 -6.907,-22.379 -10.361,-33.568 -1.428,-4.628 -2.141,-6.94 -3.569,-11.568 -1.146,-3.715 -1.718,-5.573 -2.865,-9.289 -0.93,-3.015 2.117,-6.079 6.697,-6.575 4.581,-0.496 9.131,1.745 9.97,4.769 z m 2.128,21.185 c -1.395,-4.902 -2.092,-7.353 -3.486,-12.255 -0.985,-3.464 -1.479,-5.196 -2.464,-8.66 -0.465,-1.634 -2.964,-2.856 -5.43,-2.589 -2.588,0.28 -4.133,1.941 -3.641,3.572 1.121,3.719 1.681,5.578 2.802,9.297 1.396,4.632 2.094,6.949 3.49,11.582 0.492,1.631 2.777,2.757 5.24,2.49 2.346,-0.255 3.954,-1.803 3.489,-3.437 z"
         id="path25"
         inkscape:connector-curvature="0" /><path
         d="m 222.508,543.174 c -4.153,-0.26 -8.134,-2.739 -8.926,-5.847 -4.633,-18.184 -9.264,-36.367 -13.896,-54.551 -0.167,-0.654 0.567,-1.214 1.573,-1.189 1.006,0.025 2.031,0.628 2.193,1.282 4.509,18.181 9.016,36.362 13.527,54.542 0.426,1.717 2.683,3.17 4.939,3.312 2.391,0.149 3.589,0.246 5.983,0.489 0.903,0.092 1.804,0.672 1.969,1.406 0.147,0.653 -0.512,1.134 -1.411,1.043 -2.38,-0.241 -3.571,-0.338 -5.951,-0.487 z"
         id="path27"
         inkscape:connector-curvature="0" /></g></g><g
     style="font-size:36px;font-family:Matchbook"
     id="text29"><path
       d="m 203.08118,261.78027 c 1.33199,0 2.412,-1.08 2.412,-2.412 l 0,-9.18 c 0,-1.332 -1.08001,-2.448 -2.412,-2.448 -1.332,0 -2.448,1.116 -2.448,2.448 0,0.288 0.252,0.54 0.576,0.54 0.288,0 0.54,-0.252 0.54,-0.54 0,-0.756 0.576,-1.332 1.332,-1.332 0.71999,0 1.332,0.576 1.332,1.332 l 0,4.428 c -0.396,-0.252 -0.828,-0.396 -1.332,-0.396 -1.332,0 -2.448,1.08 -2.448,2.448 l 0,2.7 c 0,1.332 1.116,2.412 2.448,2.412 m 0,-6.444 c 0.71999,0 1.332,0.576 1.332,1.332 l 0,2.7 c 0,0.72 -0.61201,1.332 -1.332,1.332 -0.756,0 -1.332,-0.612 -1.332,-1.332 l 0,-2.7 c 0,-0.756 0.576,-1.332 1.332,-1.332"
       style="font-size:36px;font-family:Matchbook"
       id="path3047" /><path
       d="m 217.67018,234.78027 c -1.332,0 -2.412,1.08 -2.412,2.412 l 0,22.14 c 0,1.368 1.08,2.448 2.412,2.448 1.36799,0 2.448,-1.08 2.448,-2.448 l 0,-3.132 0,-6.048 0,-0.216 c 0,-0.072 0,-0.108 -0.036,-0.18 -0.108,-0.612 -0.432,-1.116 -0.864,-1.476 0.54,-0.432 0.9,-1.116 0.9,-1.872 l 0,-2.124 0,-3.96 0,-3.132 c 0,-1.332 -1.08001,-2.412 -2.448,-2.412 m 1.368,15.372 0,6.048 0,3.132 c 0,0.756 -0.61201,1.368 -1.368,1.368 -0.72,0 -1.332,-0.612 -1.332,-1.368 l 0,-10.512 1.332,0 c 0.75599,0 1.368,0.612 1.368,1.332 m -2.7,-2.412 0,-10.548 c 0,-0.72 0.612,-1.332 1.332,-1.332 0.75599,0 1.368,0.612 1.368,1.332 l 0,3.132 0,3.96 0,2.124 c 0,0.72 -0.61201,1.332 -1.368,1.332 l -1.332,0"
       style="font-size:36px;font-family:Matchbook"
       id="path3049" /><path
       d="m 226.21399,261.78027 c 1.332,0 2.412,-1.08 2.412,-2.412 l 0,-9.18 c 0,-1.332 -1.08,-2.448 -2.412,-2.448 -1.332,0 -2.448,1.116 -2.448,2.448 0,0.288 0.252,0.54 0.576,0.54 0.288,0 0.54,-0.252 0.54,-0.54 0,-0.756 0.576,-1.332 1.332,-1.332 0.72,0 1.332,0.576 1.332,1.332 l 0,4.428 c -0.396,-0.252 -0.828,-0.396 -1.332,-0.396 -1.332,0 -2.448,1.08 -2.448,2.448 l 0,2.7 c 0,1.332 1.116,2.412 2.448,2.412 m 0,-6.444 c 0.72,0 1.332,0.576 1.332,1.332 l 0,2.7 c 0,0.72 -0.612,1.332 -1.332,1.332 -0.756,0 -1.332,-0.612 -1.332,-1.332 l 0,-2.7 c 0,-0.756 0.576,-1.332 1.332,-1.332"
       style="font-size:36px;font-family:Matchbook"
       id="path3051" /><path
       d="m 236.5938,247.74027 c -0.324,0 -0.576,0.252 -0.576,0.54 l 0,8.388 0,2.7 c 0,0.72 -0.576,1.332 -1.332,1.332 -0.72,0 -1.332,-0.612 -1.332,-1.332 l 0,-11.088 c 0,-0.288 -0.252,-0.54 -0.54,-0.54 -0.324,0 -0.54,0.252 -0.54,0.54 l 0,11.088 c 0,1.332 1.08,2.412 2.412,2.412 0.504,0 0.972,-0.144 1.332,-0.396 l 0,4.464 c 0,0.72 -0.576,1.332 -1.332,1.332 -0.72,0 -1.332,-0.612 -1.332,-1.332 l 0,-1.368 c 0,-0.288 -0.252,-0.54 -0.54,-0.54 -0.324,0 -0.54,0.252 -0.54,0.54 l 0,1.368 c 0,1.332 1.08,2.412 2.412,2.412 1.332,0 2.448,-1.08 2.448,-2.412 l 0,-6.48 0,-2.7 0,-8.388 c 0,-0.288 -0.252,-0.54 -0.54,-0.54"
       style="font-size:36px;font-family:Matchbook"
       id="path3053" /><path
       d="m 249.24049,261.78027 c 1.368,0 2.448,-1.08 2.448,-2.448 0,-0.036 0,-0.036 0,-0.072 l -3.78,-22.104 c 0.036,-0.72 0.612,-1.296 1.332,-1.296 0.756,0 1.368,0.612 1.368,1.332 0,0.324 0.216,0.576 0.54,0.576 0.288,0 0.54,-0.252 0.54,-0.576 0,-1.332 -1.08,-2.412 -2.448,-2.412 -1.332,0 -2.412,1.08 -2.412,2.412 0,0.036 0,0.072 0,0.108 l 3.78,22.104 c -0.036,0.684 -0.612,1.296 -1.368,1.296 -0.72,0 -1.332,-0.612 -1.332,-1.368 0,-0.288 -0.252,-0.54 -0.54,-0.54 -0.288,0 -0.54,0.252 -0.54,0.54 0,1.368 1.08,2.448 2.412,2.448"
       style="font-size:36px;font-family:Matchbook"
       id="path3055" /><path
       d="m 257.7483,261.78027 c 1.368,0 2.448,-1.08 2.448,-2.412 0,-0.324 -0.252,-0.54 -0.54,-0.54 -0.324,0 -0.576,0.216 -0.576,0.54 0,0.72 -0.576,1.332 -1.332,1.332 -0.72,0 -1.332,-0.612 -1.332,-1.332 l 0,-9.18 c 0,-0.756 0.612,-1.332 1.332,-1.332 0.756,0 1.332,0.576 1.332,1.332 0,0.288 0.252,0.54 0.576,0.54 0.288,0 0.54,-0.252 0.54,-0.54 0,-1.332 -1.08,-2.448 -2.448,-2.448 -1.332,0 -2.412,1.116 -2.412,2.448 l 0,9.18 c 0,1.332 1.08,2.412 2.412,2.412"
       style="font-size:36px;font-family:Matchbook"
       id="path3057" /><path
       d="m 266.25611,247.74027 c -0.468,0 -0.936,0.144 -1.332,0.396 l 0,-12.78 c 0,-0.324 -0.216,-0.576 -0.54,-0.576 -0.288,0 -0.54,0.252 -0.54,0.576 l 0,14.832 0,1.692 0,9.36 c 0,0.324 0.252,0.54 0.54,0.54 0.324,0 0.54,-0.216 0.54,-0.54 l 0,-9.36 0,-1.692 c 0,-0.756 0.612,-1.332 1.332,-1.332 0.756,0 1.368,0.576 1.368,1.332 l 0,11.052 c 0,0.324 0.216,0.54 0.54,0.54 0.288,0 0.54,-0.216 0.54,-0.54 l 0,-11.052 c 0,-1.332 -1.08,-2.448 -2.448,-2.448"
       style="font-size:36px;font-family:Matchbook"
       id="path3059" /><path
       d="m 274.79993,261.78027 c 1.33199,0 2.412,-1.08 2.412,-2.412 l 0,-9.18 c 0,-1.332 -1.08001,-2.448 -2.412,-2.448 -1.368,0 -2.448,1.116 -2.448,2.448 l 0,9.18 c 0,1.332 1.08,2.412 2.448,2.412 m 0,-12.924 c 0.71999,0 1.332,0.576 1.332,1.332 l 0,9.18 c 0,0.72 -0.61201,1.332 -1.332,1.332 -0.756,0 -1.368,-0.612 -1.368,-1.332 l 0,-9.18 c 0,-0.756 0.612,-1.332 1.368,-1.332"
       style="font-size:36px;font-family:Matchbook"
       id="path3061" /><path
       d="m 283.23743,261.78027 c 1.33199,0 2.412,-1.08 2.412,-2.412 l 0,-9.18 c 0,-1.332 -1.08001,-2.448 -2.412,-2.448 -1.368,0 -2.448,1.116 -2.448,2.448 l 0,9.18 c 0,1.332 1.08,2.412 2.448,2.412 m 0,-12.924 c 0.71999,0 1.332,0.576 1.332,1.332 l 0,9.18 c 0,0.72 -0.61201,1.332 -1.332,1.332 -0.756,0 -1.368,-0.612 -1.368,-1.332 l 0,-9.18 c 0,-0.756 0.612,-1.332 1.368,-1.332"
       style="font-size:36px;font-family:Matchbook"
       id="path3063" /><path
       d="m 291.67493,261.78027 c 0.288,0 0.54,-0.216 0.54,-0.54 0,-0.288 -0.252,-0.54 -0.54,-0.54 -0.756,0 -1.368,-0.612 -1.368,-1.332 l 0,-24.012 c 0,-0.324 -0.216,-0.576 -0.54,-0.576 -0.288,0 -0.54,0.252 -0.54,0.576 l 0,24.012 c 0,1.332 1.08,2.412 2.448,2.412"
       style="font-size:36px;font-family:Matchbook"
       id="path3065" /><path
       d="m 304.50611,261.78027 c 1.368,0 2.448,-1.08 2.448,-2.412 0,-0.324 -0.252,-0.54 -0.54,-0.54 -0.324,0 -0.576,0.216 -0.576,0.54 0,0.72 -0.576,1.332 -1.332,1.332 -0.72,0 -1.332,-0.612 -1.332,-1.332 l 0,-9.18 c 0,-0.756 0.612,-1.332 1.332,-1.332 0.756,0 1.332,0.576 1.332,1.332 0,0.288 0.252,0.54 0.576,0.54 0.288,0 0.54,-0.252 0.54,-0.54 0,-1.332 -1.08,-2.448 -2.448,-2.448 -1.332,0 -2.412,1.116 -2.412,2.448 l 0,9.18 c 0,1.332 1.08,2.412 2.412,2.412"
       style="font-size:36px;font-family:Matchbook"
       id="path3067" /><path
       d="m 313.04993,261.78027 c 1.33199,0 2.412,-1.08 2.412,-2.412 l 0,-9.18 c 0,-1.332 -1.08001,-2.448 -2.412,-2.448 -1.368,0 -2.448,1.116 -2.448,2.448 l 0,9.18 c 0,1.332 1.08,2.412 2.448,2.412 m 0,-12.924 c 0.71999,0 1.332,0.576 1.332,1.332 l 0,9.18 c 0,0.72 -0.61201,1.332 -1.332,1.332 -0.756,0 -1.368,-0.612 -1.368,-1.332 l 0,-9.18 c 0,-0.756 0.612,-1.332 1.368,-1.332"
       style="font-size:36px;font-family:Matchbook"
       id="path3069" /><path
       d="m 325.23143,247.74027 c -0.756,0 -1.44,0.36 -1.872,0.9 -0.468,-0.54 -1.11601,-0.9 -1.908,-0.9 -1.332,0 -2.412,1.116 -2.412,2.448 l 0,11.052 c 0,0.324 0.252,0.54 0.54,0.54 0.288,0 0.54,-0.216 0.54,-0.54 l 0,-11.052 c 0,-0.756 0.612,-1.332 1.332,-1.332 0.75599,0 1.368,0.576 1.368,1.332 l 0,11.052 c 0,0.324 0.216,0.54 0.54,0.54 0.288,0 0.54,-0.216 0.54,-0.54 l 0,-11.052 c 0,-0.756 0.612,-1.332 1.332,-1.332 0.75599,0 1.332,0.576 1.332,1.332 l 0,11.052 c 0,0.324 0.252,0.54 0.576,0.54 0.288,0 0.54,-0.216 0.54,-0.54 l 0,-11.052 c 0,-1.332 -1.11601,-2.448 -2.448,-2.448"
       style="font-size:36px;font-family:Matchbook"
       id="path3071" /><path
       d="m 337.4658,247.74027 c -0.756,0 -1.44,0.36 -1.872,0.9 -0.468,-0.54 -1.116,-0.9 -1.908,-0.9 -1.332,0 -2.412,1.116 -2.412,2.448 l 0,11.052 c 0,0.324 0.252,0.54 0.54,0.54 0.288,0 0.54,-0.216 0.54,-0.54 l 0,-11.052 c 0,-0.756 0.612,-1.332 1.332,-1.332 0.756,0 1.368,0.576 1.368,1.332 l 0,11.052 c 0,0.324 0.216,0.54 0.54,0.54 0.288,0 0.54,-0.216 0.54,-0.54 l 0,-11.052 c 0,-0.756 0.612,-1.332 1.332,-1.332 0.756,0 1.332,0.576 1.332,1.332 l 0,11.052 c 0,0.324 0.252,0.54 0.576,0.54 0.288,0 0.54,-0.216 0.54,-0.54 l 0,-11.052 c 0,-1.332 -1.116,-2.448 -2.448,-2.448"
       style="font-size:36px;font-family:Matchbook"
       id="path3073" /><path
       d="m 345.92018,261.78027 c 1.36799,0 2.448,-1.08 2.448,-2.412 l 0,-11.088 c 0,-0.288 -0.252,-0.54 -0.54,-0.54 -0.324,0 -0.576,0.252 -0.576,0.54 l 0,11.088 c 0,0.72 -0.57601,1.332 -1.332,1.332 -0.72,0 -1.332,-0.612 -1.332,-1.332 l 0,-11.088 c 0,-0.288 -0.252,-0.54 -0.54,-0.54 -0.288,0 -0.54,0.252 -0.54,0.54 l 0,11.088 c 0,1.332 1.08,2.412 2.412,2.412"
       style="font-size:36px;font-family:Matchbook"
       id="path3075" /><path
       d="m 356.26568,261.78027 c 0.324,0 0.576,-0.216 0.576,-0.54 l 0,-11.052 c 0,-1.332 -1.11601,-2.448 -2.448,-2.448 -1.332,0 -2.448,1.116 -2.448,2.448 l 0,11.052 c 0,0.324 0.252,0.54 0.576,0.54 0.288,0 0.54,-0.216 0.54,-0.54 l 0,-11.052 c 0,-0.756 0.576,-1.332 1.332,-1.332 0.71999,0 1.332,0.576 1.332,1.332 l 0,11.052 c 0,0.324 0.252,0.54 0.54,0.54"
       style="font-size:36px;font-family:Matchbook"
       id="path3077" /><path
       d="m 360.99349,247.74027 c -0.288,0 -0.54,0.252 -0.54,0.54 l 0,12.96 c 0,0.324 0.252,0.54 0.54,0.54 0.288,0 0.54,-0.216 0.54,-0.54 l 0,-12.96 c 0,-0.288 -0.252,-0.54 -0.54,-0.54 m 0,-4.644 c -0.288,0 -0.54,0.252 -0.54,0.54 l 0,1.872 c 0,0.288 0.252,0.54 0.54,0.54 0.288,0 0.54,-0.252 0.54,-0.54 l 0,-1.872 c 0,-0.288 -0.252,-0.54 -0.54,-0.54"
       style="font-size:36px;font-family:Matchbook"
       id="path3079" /><path
       d="m 368.76443,260.70027 c -0.72,0 -1.332,-0.612 -1.332,-1.332 l 0,-6.408 0,-2.772 0,-1.332 1.332,0 c 0.324,0 0.54,-0.252 0.54,-0.576 0,-0.288 -0.216,-0.54 -0.54,-0.54 l -1.332,0 0,-12.384 c 0,-0.324 -0.252,-0.576 -0.54,-0.576 -0.288,0 -0.54,0.252 -0.54,0.576 l 0,12.384 -1.332,0 c -0.324,0 -0.576,0.252 -0.576,0.54 0,0.324 0.252,0.576 0.576,0.576 l 1.332,0 0,1.332 0,2.772 0,6.408 c 0,1.332 1.08,2.412 2.412,2.412 0.324,0 0.576,-0.216 0.576,-0.54 0,-0.288 -0.252,-0.54 -0.576,-0.54"
       style="font-size:36px;font-family:Matchbook"
       id="path3081" /><path
       d="m 376.72661,247.74027 c -0.324,0 -0.576,0.252 -0.576,0.54 l 0,8.388 0,2.7 c 0,0.72 -0.576,1.332 -1.332,1.332 -0.72,0 -1.332,-0.612 -1.332,-1.332 l 0,-11.088 c 0,-0.288 -0.252,-0.54 -0.54,-0.54 -0.324,0 -0.54,0.252 -0.54,0.54 l 0,11.088 c 0,1.332 1.08,2.412 2.412,2.412 0.504,0 0.972,-0.144 1.332,-0.396 l 0,4.464 c 0,0.72 -0.576,1.332 -1.332,1.332 -0.72,0 -1.332,-0.612 -1.332,-1.332 l 0,-1.368 c 0,-0.288 -0.252,-0.54 -0.54,-0.54 -0.324,0 -0.54,0.252 -0.54,0.54 l 0,1.368 c 0,1.332 1.08,2.412 2.412,2.412 1.332,0 2.448,-1.08 2.448,-2.412 l 0,-6.48 0,-2.7 0,-8.388 c 0,-0.288 -0.252,-0.54 -0.54,-0.54"
       style="font-size:36px;font-family:Matchbook"
       id="path3083" /><path
       d="m 391.2813,261.78027 c 0.324,0 0.576,-0.216 0.576,-0.54 l 0,-11.052 c 0,-1.332 -1.116,-2.448 -2.448,-2.448 -1.332,0 -2.448,1.116 -2.448,2.448 l 0,11.052 c 0,0.324 0.252,0.54 0.576,0.54 0.288,0 0.54,-0.216 0.54,-0.54 l 0,-11.052 c 0,-0.756 0.576,-1.332 1.332,-1.332 0.72,0 1.332,0.576 1.332,1.332 l 0,11.052 c 0,0.324 0.252,0.54 0.54,0.54"
       style="font-size:36px;font-family:Matchbook"
       id="path3085" /><path
       d="m 399.78911,255.33627 c 0.324,0 0.576,-0.252 0.576,-0.576 l 0,-4.572 c 0,-1.332 -1.116,-2.448 -2.448,-2.448 -1.332,0 -2.448,1.116 -2.448,2.448 l 0,9.18 c 0,1.332 1.116,2.412 2.448,2.412 1.332,0 2.448,-1.08 2.448,-2.412 0,-0.324 -0.252,-0.54 -0.576,-0.54 -0.288,0 -0.54,0.216 -0.54,0.54 0,0.72 -0.612,1.332 -1.332,1.332 -0.756,0 -1.332,-0.612 -1.332,-1.332 l 0,-4.032 3.204,0 m -1.872,-6.48 c 0.72,0 1.332,0.576 1.332,1.332 l 0,4.032 -2.664,0 0,-4.032 c 0,-0.756 0.576,-1.332 1.332,-1.332"
       style="font-size:36px;font-family:Matchbook"
       id="path3087" /><path
       d="m 407.57693,260.70027 c -0.72,0 -1.332,-0.612 -1.332,-1.332 l 0,-6.408 0,-2.772 0,-1.332 1.332,0 c 0.324,0 0.54,-0.252 0.54,-0.576 0,-0.288 -0.216,-0.54 -0.54,-0.54 l -1.332,0 0,-12.384 c 0,-0.324 -0.252,-0.576 -0.54,-0.576 -0.288,0 -0.54,0.252 -0.54,0.576 l 0,12.384 -1.332,0 c -0.324,0 -0.576,0.252 -0.576,0.54 0,0.324 0.252,0.576 0.576,0.576 l 1.332,0 0,1.332 0,2.772 0,6.408 c 0,1.332 1.08,2.412 2.412,2.412 0.324,0 0.576,-0.216 0.576,-0.54 0,-0.288 -0.252,-0.54 -0.576,-0.54"
       style="font-size:36px;font-family:Matchbook"
       id="path3089" /><path
       d="m 419.31911,247.74027 c -0.324,0 -0.54,0.252 -0.54,0.54 l 0,11.088 c 0,0.72 -0.612,1.332 -1.368,1.332 -0.72,0 -1.332,-0.612 -1.332,-1.332 l 0,-11.088 c 0,-0.288 -0.252,-0.54 -0.54,-0.54 -0.288,0 -0.54,0.252 -0.54,0.54 l 0,11.088 c 0,0.72 -0.612,1.332 -1.332,1.332 -0.756,0 -1.368,-0.612 -1.368,-1.332 l 0,-11.088 c 0,-0.288 -0.216,-0.54 -0.54,-0.54 -0.288,0 -0.54,0.252 -0.54,0.54 l 0,11.088 c 0,1.332 1.08,2.412 2.448,2.412 0.756,0 1.44,-0.324 1.872,-0.864 0.432,0.54 1.116,0.864 1.872,0.864 1.368,0 2.448,-1.08 2.448,-2.412 l 0,-11.088 c 0,-0.288 -0.252,-0.54 -0.54,-0.54"
       style="font-size:36px;font-family:Matchbook"
       id="path3091" /><path
       d="m 425.90149,261.78027 c 1.332,0 2.412,-1.08 2.412,-2.412 l 0,-9.18 c 0,-1.332 -1.08,-2.448 -2.412,-2.448 -1.368,0 -2.448,1.116 -2.448,2.448 l 0,9.18 c 0,1.332 1.08,2.412 2.448,2.412 m 0,-12.924 c 0.72,0 1.332,0.576 1.332,1.332 l 0,9.18 c 0,0.72 -0.612,1.332 -1.332,1.332 -0.756,0 -1.368,-0.612 -1.368,-1.332 l 0,-9.18 c 0,-0.756 0.612,-1.332 1.368,-1.332"
       style="font-size:36px;font-family:Matchbook"
       id="path3093" /><path
       d="m 432.43099,261.78027 c 0.324,0 0.54,-0.216 0.54,-0.54 l 0,-11.052 c 0,-0.756 0.612,-1.332 1.332,-1.332 0.756,0 1.368,0.576 1.368,1.332 0,0.288 0.216,0.54 0.54,0.54 0.288,0 0.54,-0.252 0.54,-0.54 0,-1.332 -1.08,-2.448 -2.448,-2.448 -1.332,0 -2.412,1.116 -2.412,2.448 l 0,11.052 c 0,0.324 0.252,0.54 0.54,0.54"
       style="font-size:36px;font-family:Matchbook"
       id="path3095" /><path
       d="m 442.0323,253.03227 2.592,-4.464 c 0.144,-0.252 0.072,-0.576 -0.18,-0.756 -0.288,-0.144 -0.612,-0.036 -0.756,0.216 l -2.772,4.716 0,-17.388 c 0,-0.324 -0.216,-0.576 -0.54,-0.576 -0.288,0 -0.54,0.252 -0.54,0.576 l 0,25.884 c 0,0.324 0.252,0.54 0.54,0.54 0.324,0 0.54,-0.216 0.54,-0.54 l 0,-6.336 0.396,-0.612 2.304,7.128 c 0.108,0.216 0.288,0.36 0.54,0.36 0.036,0 0.108,0 0.18,0 0.288,-0.108 0.432,-0.396 0.324,-0.684 l -2.628,-8.064"
       style="font-size:36px;font-family:Matchbook"
       id="path3097" /></g><path
     transform="translate(-31.314728,-425.90048)"
     style=""
     d="m 473.125,484.59698 c 0,4.97057 -4.02944,9 -9,9 -4.97056,0 -9,-4.02943 -9,-9 0,-4.97056 4.02944,-9 9,-9 4.97056,0 9,4.02944 9,9 z"
     id="circle31" /><path
     transform="translate(-31.314728,-425.90048)"
     style=""
     d="m 478.525,441.79599 c 0,7.9529 -6.4471,14.4 -14.4,14.4 -7.9529,0 -14.4,-6.4471 -14.4,-14.4 0,-7.9529 6.4471,-14.4 14.4,-14.4 7.9529,0 14.4,6.4471 14.4,14.4 z"
     id="circle33" /><path
     transform="translate(-31.314728,-425.90048)"
     style=""
     d="m 485.726,466.59698 c 0,3.97645 -3.22355,7.2 -7.2,7.2 -3.97645,0 -7.2,-3.22355 -7.2,-7.2 0,-3.97645 3.22355,-7.19999 7.2,-7.19999 3.97645,0 7.2,3.22354 7.2,7.19999 z"
     id="circle35" /></svg>